<svg width="16" height="16" viewBox="0 0 16 16" fill="none" xmlns="http://www.w3.org/2000/svg">
<rect width="16" height="16" fill="#005293"/>
<path fillRule="evenodd" clipRule="evenodd" d="M7.8191 1.69973L3.71908 2.98212Z" fill="#FECB00"/>
<path d="M8.18364 1.69967C8.06495 1.66259 7.93778 1.66261 7.8191 1.69973L3.71908 2.98212C3.4641 3.06187 3.29051 3.29805 3.29051 3.5652V4.93698C3.29051 5.1549 3.40658 5.35631 3.59512 5.46557L7.70881 7.84956C7.89827 7.95936 8.13201 7.95936 8.32147 7.84956L11.9834 5.7274V6.53012L8.01484 8.82998L4.1934 6.6223C3.78611 6.387 3.27685 6.68093 3.27685 7.1513V8.29088C3.27685 8.50883 3.39296 8.71027 3.58156 8.81952L7.70872 11.2103C7.8984 11.3202 8.13239 11.32 8.32191 11.2099L11.9834 9.08222V10.1342C11.8228 10.4016 11.2956 11.243 10.5737 12.0319C10.1934 12.4473 9.76856 12.8377 9.32444 13.1221C8.87888 13.4075 8.43705 13.5715 8.01514 13.5715C7.5612 13.5715 7.08469 13.3815 6.60687 13.0568C6.13135 12.7337 5.68192 12.2955 5.29015 11.8453C4.89975 11.3966 4.57534 10.9462 4.34817 10.607C4.23483 10.4377 4.14628 10.2971 4.08643 10.1994C3.95672 9.98759 3.75606 9.75242 3.48155 9.90876C3.21862 10.0585 3.17011 10.1515 3.4414 10.5944C3.50589 10.6997 3.59996 10.8491 3.7197 11.0279C3.9587 11.3847 4.30236 11.8624 4.71954 12.3418C5.13534 12.8196 5.63301 13.3095 6.18172 13.6824C6.72812 14.0537 7.35297 14.3279 8.01514 14.3279C8.63158 14.3279 9.21533 14.0902 9.73235 13.7591C10.2508 13.4271 10.7255 12.9863 11.1317 12.5425C11.9437 11.6552 12.5191 10.7144 12.6569 10.4816C12.7148 10.3838 12.7398 10.2782 12.7398 10.1758V8.82945C12.7398 8.35839 12.2292 8.06454 11.8219 8.30122L8.01484 10.5135L4.03325 8.20704V7.40333L7.70935 9.52704C7.8987 9.63643 8.13208 9.63628 8.32129 9.52663L12.4352 7.14253C12.6237 7.03327 12.7398 6.83186 12.7398 6.61394V5.47498C12.7398 5.00424 12.2298 4.71035 11.8225 4.94639L8.01514 7.15285L4.04691 4.85316V3.67212L8.0015 2.43522L11.4285 3.50576L8.01455 5.48962L5.28845 3.91538C5.10757 3.81093 4.87626 3.87288 4.7718 4.05376C4.66735 4.23464 4.72931 4.46595 4.91019 4.57041L7.70926 6.18679C7.89882 6.29625 8.13247 6.29594 8.32173 6.18596L12.0943 3.99369C12.5538 3.72666 12.4768 3.04079 11.9695 2.88232L8.18364 1.69967Z" fill="#FECB00"/>
</svg>